<svg width="96" height="66" xmlns="http://www.w3.org/2000/svg" xmlns:xlink="http://www.w3.org/1999/xlink" xml:space="preserve" overflow="hidden"><g transform="translate(400 -740)"><g><path d="M33 30.25C29.5625 30.25 26.8125 27.5 26.8125 24.0625 26.8125 20.625 29.5625 17.875 33 17.875 36.4375 17.875 39.1875 20.625 39.1875 24.0625 39.1875 27.5 36.4375 30.25 33 30.25ZM33 9.625C28.2562 9.625 23.7875 11.9625 21.1063 15.95 18.425 19.8687 17.875 24.8875 19.5938 29.3563L26.125 43.7938 31.7625 55.6188C31.9688 56.1 32.45 56.375 33 56.375 33.55 56.375 34.0312 56.1 34.2375 55.6188L39.875 43.7938 46.4062 29.3563C48.125 24.8875 47.575 19.8687 44.8938 15.95 42.2125 11.9625 37.7438 9.625 33 9.625Z" stroke="#000000" stroke-width="0.709651" stroke-linecap="butt" stroke-linejoin="miter" stroke-miterlimit="4" stroke-opacity="0.45" fill="#FFFFFF" fill-rule="nonzero" fill-opacity="1" transform="matrix(1.45455 0 0 1 -400 740)"/></g></g></svg>